<?xml version="1.0" encoding="UTF-8" standalone="no"?>
<!-- Generator: Adobe Illustrator 18.1.1, SVG Export Plug-In . SVG Version: 6.00 Build 0)  -->

<svg
   xmlns:dc="http://purl.org/dc/elements/1.1/"
   xmlns:cc="http://creativecommons.org/ns#"
   xmlns:rdf="http://www.w3.org/1999/02/22-rdf-syntax-ns#"
   xmlns:svg="http://www.w3.org/2000/svg"
   xmlns="http://www.w3.org/2000/svg"
   xmlns:sodipodi="http://sodipodi.sourceforge.net/DTD/sodipodi-0.dtd"
   xmlns:inkscape="http://www.inkscape.org/namespaces/inkscape"
   version="1.1"
   id="Capa_1"
   x="0px"
   y="0px"
   viewBox="0 0 543.987 543.987"
   style="enable-background:new 0 0 543.987 543.987;"
   xml:space="preserve"
   inkscape:version="0.91 r13725"
   sodipodi:docname="close12.svg"><metadata
     id="metadata41"><rdf:RDF><cc:Work
         rdf:about=""><dc:format>image/svg+xml</dc:format><dc:type
           rdf:resource="http://purl.org/dc/dcmitype/StillImage" /></cc:Work></rdf:RDF></metadata><defs
     id="defs39" /><sodipodi:namedview
     pagecolor="#ffffff"
     bordercolor="#666666"
     borderopacity="1"
     objecttolerance="10"
     gridtolerance="10"
     guidetolerance="10"
     inkscape:pageopacity="0"
     inkscape:pageshadow="2"
     inkscape:window-width="738"
     inkscape:window-height="480"
     id="namedview37"
     showgrid="false"
     inkscape:zoom="0.4338339"
     inkscape:cx="271.9935"
     inkscape:cy="271.9935"
     inkscape:window-x="63"
     inkscape:window-y="34"
     inkscape:window-maximized="0"
     inkscape:current-layer="g3" /><g
     id="g3"><path
       style="fill:#ff5555"
       d="M85.265,74.203C-23.952,177.311-28.901,349.431,74.207,458.647c1.811,1.925,3.655,3.818,5.526,5.684   c106.203,106.209,278.398,106.209,384.596,0c106.209-106.198,106.209-278.393,0-384.596C360.297-24.391,192.3-26.844,85.265,74.203   z M137.431,191.268l53.841-53.841l80.765,80.765l80.765-80.765l53.847,53.841l-80.765,80.792l80.77,80.737l-53.847,53.847   l-80.765-80.77l-80.765,80.77l-53.841-53.847l80.759-80.737L137.431,191.268z"
       id="path5" /></g><g
     id="g7" /><g
     id="g9" /><g
     id="g11" /><g
     id="g13" /><g
     id="g15" /><g
     id="g17" /><g
     id="g19" /><g
     id="g21" /><g
     id="g23" /><g
     id="g25" /><g
     id="g27" /><g
     id="g29" /><g
     id="g31" /><g
     id="g33" /><g
     id="g35" /></svg>